<svg id="Layer_1" data-name="Layer 1" xmlns="http://www.w3.org/2000/svg" viewBox="0 0 321.55 184.76"><defs><style>.cls-1{fill:#fbb7a3;}.cls-2{fill:#1a1a1a;}.cls-3{fill:#f2f2f2;}.cls-4{fill:#e97195;}</style></defs><path class="cls-1" d="M61.65,192.38l.05-4a43.23,43.23,0,0,0-2.81-16.32c-2.19-5.67-3.85-15.67,2.46-29.37a28.83,28.83,0,0,0,2.51-15.23v-.12c-.06-.43-.1-.88-.16-1.33C61.92,110.17,59,80.23,60.88,68.36c.33-2.08.64-3.8.93-5.27,2-10.26,3.13-8.17,2.18-25l-1.11-7.5-.36-2.39A19.21,19.21,0,0,1,65.15,15C68.9,9.18,75.84,3.47,86.78,12.85l.16.15a14.51,14.51,0,0,1,4.72,10.61,6.54,6.54,0,0,0,.83,3.7,34.74,34.74,0,0,0,2.86,2.86A2.09,2.09,0,0,1,96,32a1.87,1.87,0,0,1-1,1.53c-1.5.71-1.17,2.72-1.17,2.72a2.25,2.25,0,0,1,.24.36,1.23,1.23,0,0,1,.27.68.85.85,0,0,1-.19.35L94,38l-.27.43.23.6c.06.43,0,.87-.34,1.06s-1,.36-1.18.69a6.5,6.5,0,0,0-.06,4c.43,1.87-4.23,4.09-11.06,2.39l-.86-.11a1.09,1.09,0,0,0-1.18.95,19.22,19.22,0,0,0,.19,7.34,18.12,18.12,0,0,0,5.51,9.21c.31.3.65.58,1,.86h0c.54.42,1.11.85,1.74,1.27,5.25,3.5,8.69,5.6,8.69,5.6a13.26,13.26,0,0,1,6.5,8,12.8,12.8,0,0,1,.09,6.34,11.66,11.66,0,0,1-2.89,5.24,9.37,9.37,0,0,0-2.4,6.8c.33,7.48.79,15.13,1.7,22.43a48.65,48.65,0,0,0,.87,4.89c.06.28.12.56.19.84a.13.13,0,0,1,0,.06c.9,3.85,2.07,7.58,2.87,11,0,0,13,28.64,15.84,54.41Z" transform="translate(-39.72 -7.62)"/><path class="cls-2" d="M91.72,24.77a16.92,16.92,0,0,0-1-4.94,16.1,16.1,0,0,0-4.17-6.14,16.83,16.83,0,0,1-.43,7.54c-1.71,5.69-6.86,10.88-10.34,10-1.63-.42-2.67-2.09-4-1.52a2.49,2.49,0,0,0-1.26,2,3.4,3.4,0,0,0,1.34,2.69,7.19,7.19,0,0,0,1.94,1.09c.42.16.5.15.57.2l0,0c.1.09.93,4-1.71,9a5.58,5.58,0,0,1-2,2.41,4.53,4.53,0,0,1-2.46.65s0,0,0,0a14.73,14.73,0,0,0-1.45,2.09c-3.85,6.57-3.27,15.58-3,19.11.11,1.69.18,1.22.76,7.17.52,5.31.78,8,.75,9.61A27.13,27.13,0,0,1,63,97.47c-1.24,2.63-3.08,6.51-6.65,7.77C51.47,107,45.6,103,42.67,98.69c-5-7.3-2.52-17.14-.84-23.93a40.85,40.85,0,0,1,6.22-14.4c1.4-2,8.57-9.29,12.92-12.84a2,2,0,0,0,.2-.17,2.27,2.27,0,0,0,.47-.67,2,2,0,0,0,.1-1.3c-.54-2.37-4.42-5.47-6.43-9.27-2.83-5.3-2.43-12.55-.22-17.45C60.16,7.4,75.22,7.6,77,7.62c1.6,0,13.41.39,16.08,7.18C93.37,15.46,94.67,19.05,91.72,24.77Z" transform="translate(-39.72 -7.62)"/><path class="cls-3" d="M68.25,47.8s0,0,0,0a14.73,14.73,0,0,0-1.45,2.09,14.87,14.87,0,0,1-5.61-2.57,2.27,2.27,0,0,0,.47-.67,2,2,0,0,0,.1-1.3A16.82,16.82,0,0,1,68.25,47.8Z" transform="translate(-39.72 -7.62)"/><path class="cls-4" d="M61.65,192.35l.05-4a43.25,43.25,0,0,0-2.81-16.33C56.7,166.39,55,156.4,61.35,142.7a28.88,28.88,0,0,0,2.51-15.24v-.11c-.06-.44-.1-.89-.16-1.34-1.78-15.87-4.69-45.8-2.82-57.68.33-2.07.67-3.79.93-5.27a2.63,2.63,0,0,1,.2-.75c1.89-3.34,22.53,8.3,24.18,5.36.23-.4.19-1.23-1.25-3.14.31.3.65.58,1,.86h0c.54.43,1.11.85,1.74,1.27,5.25,3.51,8.69,5.61,8.69,5.61a13.23,13.23,0,0,1,6.5,8,12.8,12.8,0,0,1,.09,6.34,11.66,11.66,0,0,1-2.89,5.24,9.37,9.37,0,0,0-2.4,6.81c.33,7.47.79,15.12,1.7,22.42a48.15,48.15,0,0,0,.87,4.89c.06.28.12.56.19.84a.13.13,0,0,1,0,.06c.9,3.85,2.07,7.58,2.87,11,0,0,13,28.64,15.84,54.41Z" transform="translate(-39.72 -7.62)"/><path class="cls-1" d="M62.4,66.69a7,7,0,0,0-1.76,4.36c-.14,2-.27,4.52-.36,7.36a229.89,229.89,0,0,0,2.89,42.48,242.31,242.31,0,0,0,7.48,32.47l-.57,18-.25,4.17a2,2,0,0,0,1.45,2.14c1,.18,2.27-.24,3.79-2.7,2.48-4,2.6-9.7,2.56-11.65a.18.18,0,0,1,.34-.11,17.17,17.17,0,0,1,1.85,4.26,5.43,5.43,0,0,0,.6,1.41.74.74,0,0,0,1.36-.5,11.9,11.9,0,0,1,.31-3.09c.45-1.7-3.73-7.84-4.42-8.93-1-1.52-.6-5.26-.72-7-.27-3.94-.25-7.94-.87-11.81q-1.31-8.13-3-16.18c-.55-2.72-1.31-5.45-1.75-8.2a27.94,27.94,0,0,1,0-4.48V76.08a13.32,13.32,0,0,0-2.93-8.55C66.83,65.55,64.65,64.27,62.4,66.69Z" transform="translate(-39.72 -7.62)"/><path class="cls-3" d="M86.5,13.69A16.22,16.22,0,0,1,86.68,18a16.77,16.77,0,0,1-2.81,7.92,22.27,22.27,0,0,0,2.23-6.21A22.77,22.77,0,0,0,86.5,13.69Z" transform="translate(-39.72 -7.62)"/><path class="cls-3" d="M86.5,13.69a14.34,14.34,0,0,1,1.79,2,16.63,16.63,0,0,1,3.43,9.13A12.42,12.42,0,0,0,86.5,13.69Z" transform="translate(-39.72 -7.62)"/><path class="cls-1" d="M182.52,192.38l0-4a43.23,43.23,0,0,0-2.81-16.32c-2.19-5.67-3.85-15.67,2.46-29.37a28.83,28.83,0,0,0,2.52-15.23v-.06s0,0,0-.06c0-.43-.1-.88-.16-1.33-1.77-15.87-4.69-45.81-2.81-57.68.32-2.08.64-3.8.93-5.27,2-10.26,3.12-8.17,2.17-25l-1.11-7.5-.36-2.39A19.27,19.27,0,0,1,186,15c3.75-5.85,10.69-11.56,21.63-2.18l.16.15a14.47,14.47,0,0,1,4.72,10.61c0,1.55.24,3,.84,3.7a34.82,34.82,0,0,0,2.85,2.86,2.06,2.06,0,0,1,.65,1.86,1.87,1.87,0,0,1-1,1.53c-1.5.71-1.16,2.72-1.16,2.72a3.17,3.17,0,0,1,.23.36,1.23,1.23,0,0,1,.27.68.85.85,0,0,1-.19.35l-.22.34-.28.43.23.6c.06.43,0,.87-.33,1.06s-1,.36-1.19.69a6.5,6.5,0,0,0-.06,4c.43,1.87-4.23,4.09-11.06,2.39l-.85-.11a1.09,1.09,0,0,0-1.19.95,19.46,19.46,0,0,0,.2,7.34,18,18,0,0,0,5.5,9.21c.32.3.65.58,1,.86h0c.53.42,1.1.85,1.73,1.27,5.25,3.5,8.69,5.6,8.69,5.6a13.3,13.3,0,0,1,6.51,8,12.93,12.93,0,0,1,.09,6.34A11.76,11.76,0,0,1,221,91.92c-2,2.08-1.92,4.77-2.4,6.8-1.57,6.53-.07,12.6,2.17,21.65.66,2.7.87,3.08,1.5,5.89a108.3,108.3,0,0,1,2,11.71s13,28.64,15.83,54.41Z" transform="translate(-39.72 -7.62)"/><path class="cls-2" d="M212.59,24.77a16.6,16.6,0,0,0-1.05-4.94,16,16,0,0,0-4.17-6.14,16.69,16.69,0,0,1-.43,7.54c-1.71,5.69-6.86,10.88-10.34,10-1.62-.42-2.67-2.09-4-1.52a2.52,2.52,0,0,0-1.26,2,3.4,3.4,0,0,0,1.34,2.69,7.06,7.06,0,0,0,1.95,1.09c.41.16.49.15.57.2l0,0c.1.09.93,4-1.7,9a5.72,5.72,0,0,1-2,2.41,4.58,4.58,0,0,1-2.47.65s0,0,0,0a14.8,14.8,0,0,0-1.46,2.09c-3.84,6.57-3.27,15.58-3,19.11.11,1.69.18,1.22.76,7.17.53,5.31.79,8,.76,9.61a27.17,27.17,0,0,1-2.28,11.66c-1.24,2.63-3.07,6.51-6.64,7.77-4.87,1.72-10.73-2.24-13.66-6.55-5-7.3-2.53-17.14-.84-23.93a40.66,40.66,0,0,1,6.21-14.4c1.4-2,8.58-9.29,12.93-12.84l.19-.17a2.1,2.1,0,0,0,.47-.67,2,2,0,0,0,.1-1.3c-.54-2.37-4.41-5.47-6.43-9.27-2.82-5.3-2.43-12.55-.22-17.45C181,7.4,196.09,7.6,197.9,7.62c1.6,0,13.41.39,16.08,7.18C214.24,15.46,215.54,19.05,212.59,24.77Z" transform="translate(-39.72 -7.62)"/><path class="cls-3" d="M189.12,47.8s0,0,0,0a14.8,14.8,0,0,0-1.46,2.09A14.94,14.94,0,0,1,182,47.35a2.1,2.1,0,0,0,.47-.67,2,2,0,0,0,.1-1.3A16.77,16.77,0,0,1,189.12,47.8Z" transform="translate(-39.72 -7.62)"/><path class="cls-4" d="M182.52,192.23l0-4a43.28,43.28,0,0,0-2.81-16.33c-2.19-5.66-3.85-15.66,2.46-29.36a28.88,28.88,0,0,0,2.52-15.24v0s0,0,0-.06c0-.43-.1-.88-.16-1.34-1.77-15.86-4.69-45.8-2.81-57.67.32-2.08.66-3.8.93-5.28a2.22,2.22,0,0,1,.19-.74c1.9-3.35,22.53,8.3,24.19,5.35.22-.4.18-1.22-1.26-3.13.32.29.65.58,1,.86h0c.53.42,1.1.84,1.73,1.26,5.25,3.51,8.69,5.61,8.69,5.61a13.3,13.3,0,0,1,6.51,8,13,13,0,0,1,.09,6.35A11.87,11.87,0,0,1,221,91.77c-1.95,2-1.9,4.7-2.4,6.8-1.6,6.57-.14,12.72,2.19,22.17.69,2.77,1.61,5.46,2.06,8.29s.92,5.85,1.39,8.78c0,0,13,28.64,15.83,54.42Z" transform="translate(-39.72 -7.62)"/><path class="cls-1" d="M183.28,66.69a7,7,0,0,0-1.77,4.36c-.13,2-.27,4.52-.36,7.36A229.89,229.89,0,0,0,184,120.89a242.31,242.31,0,0,0,7.48,32.47l-.57,18-.25,4.17a2,2,0,0,0,1.45,2.14c.95.18,2.28-.24,3.8-2.7,2.48-4,2.59-9.7,2.55-11.65a.18.18,0,0,1,.34-.11,16.8,16.8,0,0,1,1.85,4.26,5.15,5.15,0,0,0,.61,1.41.75.75,0,0,0,1.36-.5,11.48,11.48,0,0,1,.31-3.09c.44-1.7-3.73-7.84-4.43-8.93-1-1.52-.6-5.26-.72-7-.27-3.94-.25-7.94-.87-11.81q-1.3-8.13-2.94-16.18c-.56-2.72-1.32-5.45-1.76-8.2a29.17,29.17,0,0,1,0-4.48V76.08a13.37,13.37,0,0,0-2.93-8.55C187.7,65.55,185.52,64.27,183.28,66.69Z" transform="translate(-39.72 -7.62)"/><path class="cls-3" d="M207.37,13.69a16.52,16.52,0,0,1-2.63,12.18A22.24,22.24,0,0,0,207,19.66,22.7,22.7,0,0,0,207.37,13.69Z" transform="translate(-39.72 -7.62)"/><path class="cls-3" d="M207.37,13.69a13.6,13.6,0,0,1,1.79,2,16.55,16.55,0,0,1,3.43,9.13A12.42,12.42,0,0,0,207.37,13.69Z" transform="translate(-39.72 -7.62)"/><path class="cls-1" d="M303.78,192.38l.05-4A43.62,43.62,0,0,0,301,172.09c-2.19-5.67-3.85-15.67,2.46-29.37A28.83,28.83,0,0,0,306,127.49v-.06s0,0,0-.06c-.05-.43-.09-.88-.15-1.33-1.78-15.87-4.69-45.81-2.82-57.68.33-2.08.64-3.8.93-5.27,2-10.26,3.13-8.17,2.18-25L305,30.56l-.36-2.39A19.27,19.27,0,0,1,307.28,15C311,9.18,318,3.47,328.9,12.85l.17.15a14.55,14.55,0,0,1,4.72,10.61c0,1.55.23,3,.83,3.7a36.48,36.48,0,0,0,2.85,2.86,2.07,2.07,0,0,1,.66,1.86,1.9,1.9,0,0,1-1,1.53c-1.5.71-1.17,2.72-1.17,2.72s.16.23.24.36a1.31,1.31,0,0,1,.27.68.77.77,0,0,1-.2.35c-.07.12-.15.23-.22.34s-.18.29-.28.43l.24.6c.05.43,0,.87-.34,1.06s-1,.36-1.19.69a6.58,6.58,0,0,0-.06,4c.43,1.87-4.23,4.09-11.06,2.39l-.85-.11a1.08,1.08,0,0,0-1.18.95,19.22,19.22,0,0,0,.19,7.34,18,18,0,0,0,5.51,9.21c.31.3.64.58,1,.86h0c.54.42,1.11.85,1.73,1.27,5.26,3.5,8.7,5.6,8.7,5.6a13.26,13.26,0,0,1,6.5,8,12.93,12.93,0,0,1,.09,6.34,11.76,11.76,0,0,1-2.89,5.24,28.78,28.78,0,0,0-2.4,6.8c-.83,3.82.14,5.94,4,20.71a57.92,57.92,0,0,1,1.59,7,44.27,44.27,0,0,1,.06,11.54s13,28.64,15.84,54.41Z" transform="translate(-39.72 -7.62)"/><path class="cls-2" d="M333.85,24.77a16.92,16.92,0,0,0-1.05-4.94,16.21,16.21,0,0,0-4.17-6.14,17,17,0,0,1-.43,7.54c-1.71,5.69-6.86,10.88-10.35,10-1.62-.42-2.67-2.09-4-1.52a2.5,2.5,0,0,0-1.27,2A3.43,3.43,0,0,0,314,34.4a7.2,7.2,0,0,0,1.95,1.09c.41.16.5.15.57.2l.05,0c.09.09.93,4-1.71,9a5.65,5.65,0,0,1-2,2.41,4.56,4.56,0,0,1-2.47.65,0,0,0,0,1,0,0,15.67,15.67,0,0,0-1.46,2.09c-3.84,6.57-3.27,15.58-3,19.11.11,1.69.18,1.22.76,7.17.53,5.31.79,8,.76,9.61a27.29,27.29,0,0,1-2.27,11.66c-1.25,2.63-3.08,6.51-6.65,7.77-4.87,1.72-10.73-2.24-13.66-6.55-5-7.3-2.53-17.14-.84-23.93a40.84,40.84,0,0,1,6.21-14.4c1.4-2,8.58-9.29,12.93-12.84a1.3,1.3,0,0,0,.19-.17,2.1,2.1,0,0,0,.48-.67,2,2,0,0,0,.09-1.3c-.54-2.37-4.41-5.47-6.42-9.27-2.83-5.3-2.43-12.55-.23-17.45,5.08-11.26,20.14-11.06,21.94-11,1.61,0,13.42.39,16.09,7.18C335.5,15.46,336.8,19.05,333.85,24.77Z" transform="translate(-39.72 -7.62)"/><path class="cls-3" d="M310.37,47.8a0,0,0,0,1,0,0,15.67,15.67,0,0,0-1.46,2.09,14.94,14.94,0,0,1-5.61-2.57,2.1,2.1,0,0,0,.48-.67,2,2,0,0,0,.09-1.3A16.77,16.77,0,0,1,310.37,47.8Z" transform="translate(-39.72 -7.62)"/><path class="cls-4" d="M303.78,192.23l.05-4A43.68,43.68,0,0,0,301,171.93c-2.19-5.66-3.85-15.66,2.46-29.36A28.88,28.88,0,0,0,306,127.33v0s0,0,0-.06c-.05-.43-.09-.88-.15-1.34-1.78-15.86-4.69-45.8-2.82-57.67.33-2.08.66-3.8.93-5.28a2.29,2.29,0,0,1,.2-.74c1.89-3.35,22.52,8.3,24.18,5.35.22-.4.18-1.22-1.25-3.13.31.29.64.58,1,.86h0c.54.42,1.11.84,1.73,1.26,5.26,3.51,8.7,5.61,8.7,5.61a13.26,13.26,0,0,1,6.5,8,13,13,0,0,1,.09,6.35,11.87,11.87,0,0,1-2.89,5.24,28.74,28.74,0,0,0-2.4,6.8c-1.17,5.29,1.17,10.69,2.6,15.66.42,1.5.7,3.06,1.22,4.51a38.14,38.14,0,0,1,1.4,5,39.28,39.28,0,0,1,.8,7.09c.05,2.34-.25,4.63-.38,7,0,0,13,28.64,15.84,54.42Z" transform="translate(-39.72 -7.62)"/><path class="cls-1" d="M304.53,66.69a7.1,7.1,0,0,0-1.77,4.36c-.13,2-.27,4.52-.35,7.36a228.94,228.94,0,0,0,2.89,42.48,242.09,242.09,0,0,0,7.47,32.47l-.57,18-.25,4.17a2,2,0,0,0,1.45,2.14c1,.18,2.28-.24,3.8-2.7,2.48-4,2.6-9.7,2.56-11.65a.18.18,0,0,1,.34-.11,17.21,17.21,0,0,1,1.84,4.26,5.15,5.15,0,0,0,.61,1.41.75.75,0,0,0,1.36-.5,11.9,11.9,0,0,1,.31-3.09c.44-1.7-3.73-7.84-4.43-8.93-1-1.52-.6-5.26-.72-7-.27-3.94-.24-7.94-.87-11.81q-1.31-8.13-2.94-16.18c-.55-2.72-1.32-5.45-1.76-8.2a29.17,29.17,0,0,1,0-4.48V76.08a13.37,13.37,0,0,0-2.93-8.55C309,65.55,306.78,64.27,304.53,66.69Z" transform="translate(-39.72 -7.62)"/><path class="cls-3" d="M328.63,13.69a17.14,17.14,0,0,1,.18,4.26A16.88,16.88,0,0,1,326,25.87a22.59,22.59,0,0,0,2.23-6.21A23.22,23.22,0,0,0,328.63,13.69Z" transform="translate(-39.72 -7.62)"/><path class="cls-3" d="M328.63,13.69a14,14,0,0,1,1.78,2,16.63,16.63,0,0,1,3.44,9.13A12.45,12.45,0,0,0,328.63,13.69Z" transform="translate(-39.72 -7.62)"/></svg>