<svg id="Layer_1" data-name="Layer 1" xmlns="http://www.w3.org/2000/svg" viewBox="0 0 333.52 186.17"><defs><style>.cls-1{fill:#fbb7a3;}.cls-2{fill:#1a1a1a;}.cls-3{fill:#f2f2f2;}.cls-4{fill:#e97195;}</style></defs><path class="cls-1" d="M54.32,193.17l0-4a43.63,43.63,0,0,0-2.83-16.44C49.33,167,47.67,157,54,143.17a29.16,29.16,0,0,0,2.53-15.34v-.06s0,0,0-.06c0-.43-.1-.88-.16-1.34-1.78-16-4.72-46.13-2.83-58.08.33-2.09.64-3.82.93-5.31,2.05-10.33,3.15-8.23,2.2-25.2l-1.13-7.55-.36-2.41a19.46,19.46,0,0,1,2.65-13.23C61.62,8.7,68.6,2.94,79.62,12.4l.17.14a14.66,14.66,0,0,1,4.75,10.69c0,1.56.24,3,.84,3.72a33.77,33.77,0,0,0,2.87,2.88,2.11,2.11,0,0,1,.66,1.88,1.88,1.88,0,0,1-1,1.53C86.43,34,86.77,36,86.77,36a3.17,3.17,0,0,1,.23.36,1.27,1.27,0,0,1,.28.69.82.82,0,0,1-.2.35l-.22.34-.28.44.23.59c.06.44,0,.88-.33,1.08s-1,.35-1.2.69a6.59,6.59,0,0,0-.06,4c.43,1.88-4.26,4.11-11.14,2.4l-.86-.1A1.08,1.08,0,0,0,72,47.8a19.31,19.31,0,0,0,.2,7.39,18.19,18.19,0,0,0,5.54,9.28c.32.29.65.58,1,.86h0c.54.43,1.12.85,1.75,1.27,5.29,3.54,8.75,5.65,8.75,5.65a13.33,13.33,0,0,1,6.55,8.1,13.14,13.14,0,0,1,.09,6.39A11.9,11.9,0,0,1,93,92c-2.27,2.4-2.24,5.76-2.42,6.84-.91,5.47,3.14,7.84,7.45,19.48,2.12,5.71,2.18,7.93,2.15,9a19.78,19.78,0,0,1-3.92,11s13.08,28.84,16,54.79Z" transform="translate(-32.24 -7)"/><path class="cls-2" d="M84.6,24.39a16.77,16.77,0,0,0-1.06-5,16.2,16.2,0,0,0-4.2-6.19,16.91,16.91,0,0,1-.43,7.59c-1.72,5.73-6.91,11-10.42,10.05-1.63-.42-2.68-2.1-4-1.53a2.52,2.52,0,0,0-1.27,2,3.41,3.41,0,0,0,1.35,2.7,6.91,6.91,0,0,0,2,1.1c.41.17.5.16.57.2l0,0c.1.09.94,4.06-1.72,9.09a5.64,5.64,0,0,1-2,2.42,4.53,4.53,0,0,1-2.48.66v0a15.41,15.41,0,0,0-1.47,2.12c-3.87,6.6-3.29,15.68-3.06,19.24.11,1.7.18,1.22.76,7.21.54,5.36.8,8,.77,9.68A27.4,27.4,0,0,1,55.66,97.6c-1.25,2.65-3.1,6.56-6.69,7.82-4.9,1.74-10.81-2.25-13.76-6.59-5-7.36-2.54-17.25-.84-24.1a40.9,40.9,0,0,1,6.25-14.49c1.41-2.06,8.64-9.36,13-12.93l.19-.17a2.29,2.29,0,0,0,.48-.68,2,2,0,0,0,.1-1.31c-.55-2.39-4.45-5.51-6.48-9.33-2.84-5.34-2.44-12.64-.22-17.58C52.82,6.9,68,7.11,69.8,7.13c1.62,0,13.51.39,16.2,7.23C86.26,15,87.57,18.63,84.6,24.39Z" transform="translate(-32.24 -7)"/><path class="cls-3" d="M61,47.59v0a15.41,15.41,0,0,0-1.47,2.12,15.31,15.31,0,0,1-5.65-2.59,2.29,2.29,0,0,0,.48-.68,2,2,0,0,0,.1-1.31A16.89,16.89,0,0,1,61,47.59Z" transform="translate(-32.24 -7)"/><path class="cls-4" d="M54.32,193l0-4a43.66,43.66,0,0,0-2.83-16.44c-2.21-5.7-3.87-15.77,2.48-29.56a29.18,29.18,0,0,0,2.53-15.35v-.06s0,0,0,0c0-.44-.1-.89-.16-1.35-1.78-16-4.72-46.12-2.83-58.08.33-2.09.66-3.81.93-5.3a2.68,2.68,0,0,1,.2-.76c1.91-3.37,22.69,8.36,24.35,5.4.23-.41.19-1.24-1.26-3.16.32.3.65.58,1,.86h0c.54.43,1.12.86,1.75,1.28,5.29,3.53,8.75,5.65,8.75,5.65a13.34,13.34,0,0,1,6.55,8.09,13.13,13.13,0,0,1,.09,6.39A11.84,11.84,0,0,1,93,91.86c-1.24,1.31-2.17,4.11-2.42,6.85-.22,2.4,1,5.21,3.49,10.74,1.54,3.44,2.08,4.2,3.56,7.8a29.91,29.91,0,0,1,2.13,6.19,18.63,18.63,0,0,1-.27,8.48,17.16,17.16,0,0,1-3.23,6.3s13.08,28.84,16,54.8Z" transform="translate(-32.24 -7)"/><path class="cls-3" d="M79.34,13.24a16.83,16.83,0,0,1,.19,4.29,17,17,0,0,1-2.83,8,22.83,22.83,0,0,0,2.64-12.26Z" transform="translate(-32.24 -7)"/><path class="cls-3" d="M79.34,13.24a13.75,13.75,0,0,1,1.8,2,16.77,16.77,0,0,1,3.46,9.19A12.51,12.51,0,0,0,79.34,13.24Z" transform="translate(-32.24 -7)"/><path class="cls-1" d="M101.69,130.83l-.34.31a3.48,3.48,0,0,1-1,.58c-1,.37,0,3.26,0,3.26a5.42,5.42,0,0,1,0,1.66c-.06,1.68-.44,3.62-1.89,4.54a4,4,0,0,1-2,.56c-.86,0-2.22.07-2.86-.63a10.2,10.2,0,0,1-.91-1.17,21.86,21.86,0,0,1-1.75-2.7,1,1,0,0,0-.1-.15.71.71,0,0,0-.35-.24c-.37-.15-8.5-6.47-13.43-10-6.12-4.34-7.53-4.47-10.16-7.71a28.9,28.9,0,0,1-3.09-4.77,67.81,67.81,0,0,1-6.52-18.64c-.27-1.35-.82-4.18-1.1-5.56-1.5-7.61-1.67-8.4-2-10.16-1.63-9.38-1.3-12,.14-13.39a4.13,4.13,0,0,1,1.11-.76c5.4-2.86,8.64,5,10,9.13a67.39,67.39,0,0,1,2.35,9l3.74,21.73a3.47,3.47,0,0,0,.87,1.78l21.4,22.94a1.19,1.19,0,0,0,1.51.21c.29-.18.54-.4.83-.55.74-.34,1.5-.6,2.27-.87l1.8-.86a2.31,2.31,0,0,0,.4-.37,4,4,0,0,0,.63-.72,2,2,0,0,1,.65-.76.66.66,0,0,1,.65,0,.92.92,0,0,1,.36.46,2.76,2.76,0,0,1,.21,1.63,3.32,3.32,0,0,1-.87,1.59A6.55,6.55,0,0,1,101.69,130.83Z" transform="translate(-32.24 -7)"/><path class="cls-1" d="M182.09,193.17l0-4a43.63,43.63,0,0,0-2.83-16.44c-2.21-5.71-3.87-15.77,2.48-29.57a29.16,29.16,0,0,0,2.53-15.34v-.06s0,0,0-.06c-.05-.43-.1-.88-.16-1.34-1.78-16-4.72-46.13-2.83-58.08.33-2.09.64-3.82.93-5.31,2.05-10.33,3.15-8.23,2.2-25.2l-1.13-7.55L183,27.82a19.46,19.46,0,0,1,2.65-13.23c3.78-5.89,10.76-11.65,21.78-2.19l.17.14a14.66,14.66,0,0,1,4.75,10.69c0,1.56.24,3,.84,3.72A33.77,33.77,0,0,0,216,29.83a2.11,2.11,0,0,1,.66,1.88,1.88,1.88,0,0,1-1,1.53C214.2,34,214.54,36,214.54,36a3.17,3.17,0,0,1,.23.36,1.27,1.27,0,0,1,.28.69.82.82,0,0,1-.2.35l-.22.34-.28.44.23.59c.06.44,0,.88-.33,1.08s-1.05.35-1.2.69a6.59,6.59,0,0,0-.06,4c.43,1.88-4.26,4.11-11.14,2.4l-.86-.1a1.08,1.08,0,0,0-1.19.95,19.31,19.31,0,0,0,.2,7.39,18.19,18.19,0,0,0,5.54,9.28c.32.29.65.58,1,.86h0c.54.43,1.12.85,1.75,1.27,5.29,3.54,8.75,5.65,8.75,5.65a13.33,13.33,0,0,1,6.55,8.1,13.14,13.14,0,0,1,.09,6.39A11.9,11.9,0,0,1,220.78,92c-1.56,1.64-2.17,4.79-2.42,6.84-.63,5.33,4.11,7.81,9,18.19a19.15,19.15,0,0,1,2,8.68,16.55,16.55,0,0,1-.24,2.49,21,21,0,0,1-5,10.16s13.08,28.84,16,54.79Z" transform="translate(-32.24 -7)"/><path class="cls-2" d="M212.37,24.39a16.77,16.77,0,0,0-1.06-5,16.2,16.2,0,0,0-4.2-6.19,16.91,16.91,0,0,1-.43,7.59c-1.72,5.73-6.91,11-10.42,10.05-1.63-.42-2.68-2.1-4-1.53a2.52,2.52,0,0,0-1.27,2,3.41,3.41,0,0,0,1.35,2.7,6.91,6.91,0,0,0,2,1.1c.41.17.5.16.57.2l.05,0c.1.09.94,4.06-1.72,9.09a5.64,5.64,0,0,1-2,2.42,4.53,4.53,0,0,1-2.48.66v0a15.41,15.41,0,0,0-1.47,2.12c-3.87,6.6-3.29,15.68-3.06,19.24.11,1.7.18,1.22.76,7.21.54,5.36.8,8,.77,9.68a27.4,27.4,0,0,1-2.29,11.74c-1.25,2.65-3.1,6.56-6.69,7.82-4.9,1.74-10.81-2.25-13.76-6.59-5-7.36-2.54-17.25-.84-24.1a40.9,40.9,0,0,1,6.25-14.49c1.41-2.06,8.64-9.36,13-12.93l.19-.17a2.29,2.29,0,0,0,.48-.68,2,2,0,0,0,.1-1.31c-.55-2.39-4.45-5.51-6.48-9.33-2.84-5.34-2.44-12.64-.22-17.58C180.59,6.9,195.75,7.11,197.57,7.13c1.62,0,13.51.39,16.2,7.23C214,15,215.34,18.63,212.37,24.39Z" transform="translate(-32.24 -7)"/><path class="cls-3" d="M188.73,47.59v0a15.41,15.41,0,0,0-1.47,2.12,15.31,15.31,0,0,1-5.65-2.59,2.29,2.29,0,0,0,.48-.68,2,2,0,0,0,.1-1.31A16.89,16.89,0,0,1,188.73,47.59Z" transform="translate(-32.24 -7)"/><path class="cls-4" d="M182.09,193.17l0-4a43.63,43.63,0,0,0-2.83-16.44c-2.21-5.71-3.87-15.77,2.48-29.57a29.16,29.16,0,0,0,2.53-15.34v-.06s0,0,0-.06c-.05-.43-.1-.88-.16-1.34-1.78-16-4.72-46.12-2.83-58.08.33-2.09.66-3.82.93-5.31a2.63,2.63,0,0,1,.2-.75c1.91-3.37,22.69,8.36,24.35,5.39.23-.4.19-1.23-1.26-3.15.32.29.65.58,1,.86h0c.54.43,1.12.85,1.75,1.27,5.29,3.54,8.75,5.65,8.75,5.65a13.33,13.33,0,0,1,6.55,8.1,13.86,13.86,0,0,1,.09,6.39,9,9,0,0,1-1.3,3.33c-.31.46-1,1.32-1.47,1.94a9.71,9.71,0,0,0-1.18,1.76l-.22.45a15,15,0,0,0-1.16,4.64c-.15,3,1.3,5.39,3.9,9.46.9,1.42,1.72,2.46,3.08,4.86a38.71,38.71,0,0,1,1.82,3.53,20.27,20.27,0,0,1,2.07,10.34,18.23,18.23,0,0,1-1.61,5.85,19.92,19.92,0,0,1-3.58,5.48s13.08,28.84,16,54.79Z" transform="translate(-32.24 -7)"/><path class="cls-3" d="M207.11,13.24a16.83,16.83,0,0,1,.19,4.29,17,17,0,0,1-2.83,8,22.83,22.83,0,0,0,2.64-12.26Z" transform="translate(-32.24 -7)"/><path class="cls-3" d="M207.11,13.24a13.75,13.75,0,0,1,1.8,2,16.77,16.77,0,0,1,3.46,9.19A12.51,12.51,0,0,0,207.11,13.24Z" transform="translate(-32.24 -7)"/><path class="cls-1" d="M229.94,131.48c-.11.11-.23.21-.35.31a3.35,3.35,0,0,1-1.06.59c-1,.38,0,3.29,0,3.29a5.49,5.49,0,0,1,0,1.67c-.06,1.7-.44,3.66-1.91,4.59a4,4,0,0,1-2,.56c-.86,0-2.24.08-2.89-.63a13.3,13.3,0,0,1-.92-1.18,23.53,23.53,0,0,1-1.76-2.73.58.58,0,0,0-.11-.15.81.81,0,0,0-.34-.25c-.38-.14-8.58-6.53-13.57-10.06-6.18-4.38-7.6-4.52-10.25-7.78a29.47,29.47,0,0,1-3.13-4.82,68.19,68.19,0,0,1-6.58-18.82c-.27-1.37-.83-4.23-1.11-5.62-1.52-7.68-1.69-8.48-2-10.26-1.65-9.47-1.31-12.09.14-13.52a4,4,0,0,1,1.12-.77c5.46-2.89,8.73,5,10.13,9.22a67.47,67.47,0,0,1,2.37,9.12l3.78,22a3.37,3.37,0,0,0,.88,1.79L222,131.15a1.18,1.18,0,0,0,1.53.21c.28-.17.54-.39.83-.55.75-.34,1.52-.6,2.29-.87l1.82-.88a2,2,0,0,0,.4-.37,4.09,4.09,0,0,0,.64-.73,2.09,2.09,0,0,1,.65-.76.7.7,0,0,1,.67,0,.93.93,0,0,1,.36.46,2.79,2.79,0,0,1,.21,1.64,3.23,3.23,0,0,1-.88,1.61A8.36,8.36,0,0,1,229.94,131.48Z" transform="translate(-32.24 -7)"/><path class="cls-1" d="M307.86,193l.05-4a43.66,43.66,0,0,0-2.83-16.44c-2.21-5.7-3.87-15.77,2.48-29.57a29.14,29.14,0,0,0,2.53-15.34v-.06s0,0,0,0c-.05-.44-.1-.89-.16-1.35-1.78-16-4.72-46.12-2.83-58.08.33-2.09.64-3.82.93-5.31,2.05-10.32,3.15-8.22,2.2-25.2l-1.13-7.55-.36-2.4a19.44,19.44,0,0,1,2.65-13.23c3.77-5.9,10.76-11.65,21.78-2.2l.17.15a14.66,14.66,0,0,1,4.75,10.68,6.56,6.56,0,0,0,.84,3.73,37,37,0,0,0,2.87,2.88,2.1,2.1,0,0,1,.66,1.87,1.9,1.9,0,0,1-1,1.54c-1.51.72-1.17,2.74-1.17,2.74s.16.24.23.36a1.27,1.27,0,0,1,.28.69.82.82,0,0,1-.2.35c-.07.12-.15.23-.22.34l-.28.44.23.6c.06.43,0,.88-.33,1.07s-1,.35-1.2.69a6.59,6.59,0,0,0-.06,4c.43,1.88-4.26,4.11-11.14,2.4l-.86-.1a1.09,1.09,0,0,0-1.19,1,19.31,19.31,0,0,0,.2,7.39,18.08,18.08,0,0,0,5.54,9.28c.32.3.65.58,1,.86h0c.54.43,1.12.86,1.75,1.28,5.29,3.53,8.75,5.64,8.75,5.64a13.33,13.33,0,0,1,6.55,8.1,13.13,13.13,0,0,1,.09,6.39c-.59,2.34-1.65,2.35-2.91,5.28-.6,1.4-1.72,4-1.22,6.67.44,2.34,1.94,3.71,3.19,5,1.71,1.76,8.65,8.91,9.41,16.85a18.37,18.37,0,0,1-1.25,8.11,21.63,21.63,0,0,1-6.87,9.74s13.08,28.84,15.95,54.79Z" transform="translate(-32.24 -7)"/><path class="cls-2" d="M338.14,24.27a16.76,16.76,0,0,0-1.06-5,16.2,16.2,0,0,0-4.2-6.19,16.9,16.9,0,0,1-.43,7.59c-1.72,5.74-6.91,11-10.42,10.05-1.63-.42-2.68-2.1-4-1.53a2.52,2.52,0,0,0-1.27,2,3.39,3.39,0,0,0,1.35,2.7,6.67,6.67,0,0,0,2,1.1c.41.17.5.16.57.2l0,0c.1.08.94,4.05-1.72,9.08a5.64,5.64,0,0,1-2,2.42,4.53,4.53,0,0,1-2.48.66,0,0,0,0,1,0,0A15.94,15.94,0,0,0,313,49.6c-3.87,6.61-3.29,15.68-3.06,19.24.11,1.7.18,1.23.76,7.21.54,5.36.8,8,.77,9.68a27.4,27.4,0,0,1-2.29,11.74c-1.25,2.66-3.1,6.56-6.69,7.83-4.9,1.73-10.81-2.25-13.76-6.59-5-7.36-2.54-17.26-.84-24.1a41,41,0,0,1,6.25-14.5c1.41-2.06,8.64-9.36,13-12.93l.19-.17a2.16,2.16,0,0,0,.48-.68A2,2,0,0,0,308,45c-.55-2.39-4.45-5.51-6.48-9.34-2.84-5.34-2.44-12.64-.22-17.58C306.36,6.78,321.52,7,323.34,7c1.62,0,13.51.39,16.2,7.23C339.8,14.89,341.11,18.51,338.14,24.27Z" transform="translate(-32.24 -7)"/><path class="cls-3" d="M314.5,47.46a0,0,0,0,1,0,0A15.94,15.94,0,0,0,313,49.6,15.31,15.31,0,0,1,307.37,47a2.16,2.16,0,0,0,.48-.68A2,2,0,0,0,308,45,16.85,16.85,0,0,1,314.5,47.46Z" transform="translate(-32.24 -7)"/><path class="cls-4" d="M307.85,193.17l0-4a43.83,43.83,0,0,0-2.83-16.44c-2.21-5.71-3.88-15.77,2.48-29.57a29.16,29.16,0,0,0,2.53-15.34v-.06s0,0,0-.06c-.05-.43-.1-.88-.16-1.34-1.79-16-4.72-46.12-2.84-58.08.33-2.09.67-3.82.94-5.31a2.33,2.33,0,0,1,.2-.75c1.91-3.37,22.68,8.36,24.35,5.39.23-.4.27-1.29-1.18-3.22.32.3.63.55,1,.83l0,0c.54.42,1.15.87,1.77,1.28,5.29,3.54,8.8,5.58,8.8,5.58a13.76,13.76,0,0,1,6.45,8.23,14.14,14.14,0,0,1,.05,6.4,9.16,9.16,0,0,1-1.3,3.33c-.41.61-.89,1-1.47,1.94a10.27,10.27,0,0,0-.88,1.8s-.18.6-.19.65a9.93,9.93,0,0,0-.38,3.63,8.23,8.23,0,0,0,.34,1.55c.69,2.13,2.05,2.92,4.74,5.84a33.23,33.23,0,0,1,2.77,3.33,31.62,31.62,0,0,1,1.95,3,20.53,20.53,0,0,1,2.87,7.85,18.6,18.6,0,0,1-1,8.13,22.7,22.7,0,0,1-2.92,6,22,22,0,0,1-4.19,4.57s13.08,28.84,15.95,54.79Z" transform="translate(-32.24 -7)"/><path class="cls-3" d="M332.88,13.11a16.86,16.86,0,0,1,.19,4.29,17.09,17.09,0,0,1-2.83,8,22.88,22.88,0,0,0,2.64-12.27Z" transform="translate(-32.24 -7)"/><path class="cls-3" d="M332.88,13.11a14.49,14.49,0,0,1,1.8,2,16.78,16.78,0,0,1,3.46,9.2A12.53,12.53,0,0,0,332.88,13.11Z" transform="translate(-32.24 -7)"/><path class="cls-1" d="M357.2,130.83l-.36.3a3.61,3.61,0,0,1-1.09.59c-1.06.36,0,3.26,0,3.26a5.06,5.06,0,0,1,0,1.65c-.06,1.68-.44,3.63-1.95,4.54a4.19,4.19,0,0,1-2.07.55c-.88,0-2.3.07-3-.63a10.89,10.89,0,0,1-1-1.18,23.62,23.62,0,0,1-1.82-2.7.78.78,0,0,0-.1-.15.81.81,0,0,0-.36-.24c-.38-.15-8.83-6.49-14-10-6.36-4.36-7.82-4.5-10.55-7.74a28.37,28.37,0,0,1-3.22-4.78A66,66,0,0,1,311,95.65c-.28-1.36-.86-4.18-1.15-5.56-1.58-7.62-1.75-8.41-2.08-10.17-1.71-9.39-1.37-12,.12-13.39a3.89,3.89,0,0,1,1.14-.76c5.61-2.85,9,5,10.44,9.15A66.81,66.81,0,0,1,322,84l3.92,21.74a3.46,3.46,0,0,0,.91,1.78l22.25,23a1.25,1.25,0,0,0,1.57.22c.3-.18.56-.39.86-.55.77-.34,1.56-.59,2.35-.86l1.87-.86a2,2,0,0,0,.41-.36,4.09,4.09,0,0,0,.65-.73,2.13,2.13,0,0,1,.68-.75.72.72,0,0,1,.68,0,1,1,0,0,1,.37.45,2.73,2.73,0,0,1,.22,1.64,3.22,3.22,0,0,1-.9,1.58C357.6,130.44,357.4,130.64,357.2,130.83Z" transform="translate(-32.24 -7)"/></svg>