<svg id="Layer_1" data-name="Layer 1" xmlns="http://www.w3.org/2000/svg" viewBox="0 0 318.59 185.13"><defs><style>.cls-1{fill:#f2f2f2;}.cls-2{fill:#fbb7a3;}.cls-3{fill:#1a1a1a;}.cls-4{fill:#e97195;}</style></defs><path class="cls-1" d="M79.34,13.24a16.83,16.83,0,0,1,.19,4.29,17,17,0,0,1-2.83,8,22.83,22.83,0,0,0,2.64-12.26Z" transform="translate(-41.2 -7)"/><path class="cls-1" d="M79.34,13.24a13.75,13.75,0,0,1,1.8,2,16.77,16.77,0,0,1,3.46,9.19A12.51,12.51,0,0,0,79.34,13.24Z" transform="translate(-41.2 -7)"/><path class="cls-1" d="M207.11,13.24a16.83,16.83,0,0,1,.19,4.29,17,17,0,0,1-2.83,8,22.83,22.83,0,0,0,2.64-12.26Z" transform="translate(-41.2 -7)"/><path class="cls-1" d="M207.11,13.24a13.75,13.75,0,0,1,1.8,2,16.77,16.77,0,0,1,3.46,9.19A12.51,12.51,0,0,0,207.11,13.24Z" transform="translate(-41.2 -7)"/><path class="cls-1" d="M332.88,13.11a16.86,16.86,0,0,1,.19,4.29,17.09,17.09,0,0,1-2.83,8,22.88,22.88,0,0,0,2.64-12.27Z" transform="translate(-41.2 -7)"/><path class="cls-1" d="M332.88,13.11a14.49,14.49,0,0,1,1.8,2,16.78,16.78,0,0,1,3.46,9.2A12.53,12.53,0,0,0,332.88,13.11Z" transform="translate(-41.2 -7)"/><path class="cls-2" d="M63.17,192.13l0-4A43.64,43.64,0,0,0,60.4,171.8c-2.19-5.67-3.85-15.69,2.47-29.41a28.84,28.84,0,0,0,2.51-15.26V127c0-.43-.1-.88-.16-1.34-1.78-15.88-4.7-45.87-2.82-57.77.33-2.07.64-3.8.93-5.28,2-10.27,3.13-8.18,2.18-25.07L64.39,30,64,27.65a19.26,19.26,0,0,1,2.63-13.16C70.42,8.62,77.38,2.9,88.34,12.31l.16.14a14.58,14.58,0,0,1,4.73,10.63,6.54,6.54,0,0,0,.83,3.7,33.53,33.53,0,0,0,2.86,2.87,2.08,2.08,0,0,1,.65,1.87,1.85,1.85,0,0,1-1,1.52c-1.5.72-1.16,2.73-1.16,2.73s.16.24.23.36a1.26,1.26,0,0,1,.27.69,1,1,0,0,1-.19.35l-.23.34-.27.43.23.59c.06.44,0,.88-.34,1.07s-1,.35-1.19.69a6.68,6.68,0,0,0-.06,4c.44,1.87-4.23,4.09-11.07,2.39L82,46.57a1.09,1.09,0,0,0-1.18,1A19.28,19.28,0,0,0,81,54.87,18.09,18.09,0,0,0,86.5,64.1c.31.3.64.58,1,.86h0c.54.42,1.11.85,1.74,1.27C94.5,69.74,98,71.84,98,71.84a13.33,13.33,0,0,1,6.51,8.06,13,13,0,0,1,.09,6.36,6.9,6.9,0,0,1-.44,1.23c-1.07,2.16-1.84,2.79-2.46,4a7.52,7.52,0,0,0,0,5.88c.88,2.15,2.71,3,3.86,3.77,5.8,3.65,8.91,12.22,9,18.64a21.16,21.16,0,0,1-1.8,9,19.56,19.56,0,0,1-7.83,8.82s13,28.69,15.86,54.51Z" transform="translate(-41.2 -7)"/><path class="cls-3" d="M93.29,24.24a16.86,16.86,0,0,0-1.05-4.94,16.15,16.15,0,0,0-4.18-6.16,16.87,16.87,0,0,1-.43,7.55c-1.71,5.71-6.87,10.9-10.36,10-1.63-.42-2.68-2.09-4-1.52a2.51,2.51,0,0,0-1.27,2,3.4,3.4,0,0,0,1.34,2.69,7.2,7.2,0,0,0,2,1.09c.41.16.5.15.57.2l0,0c.1.09.93,4-1.71,9a5.78,5.78,0,0,1-2,2.41,4.58,4.58,0,0,1-2.47.65l0,0a15.15,15.15,0,0,0-1.46,2.1C64.45,56,65,65,65.26,68.58c.11,1.69.18,1.22.76,7.17.53,5.33.79,8,.76,9.63A27.25,27.25,0,0,1,64.5,97.06c-1.24,2.64-3.08,6.52-6.66,7.78-4.87,1.73-10.75-2.24-13.68-6.55-5-7.32-2.53-17.17-.84-24a40.92,40.92,0,0,1,6.22-14.43c1.4-2,8.59-9.3,13-12.86l.19-.17a2.1,2.1,0,0,0,.48-.67,2,2,0,0,0,.1-1.3c-.55-2.38-4.43-5.48-6.44-9.29C54,30.29,54.38,23,56.59,18.12c5.09-11.28,20.17-11.08,22-11,1.61,0,13.44.38,16.11,7.19C94.94,14.92,96.24,18.51,93.29,24.24Z" transform="translate(-41.2 -7)"/><path class="cls-4" d="M63.17,192.13l0-4A43.64,43.64,0,0,0,60.4,171.8c-2.19-5.67-3.85-15.69,2.47-29.41a28.84,28.84,0,0,0,2.51-15.26V127c0-.43-.1-.88-.16-1.34-1.78-15.88-4.7-45.87-2.82-57.77.33-2.07.66-3.8.93-5.28a2.29,2.29,0,0,1,.2-.74c1.9-3.36,22.56,8.31,24.22,5.36.23-.4.19-1.23-1.25-3.14.31.3.71.48,1.06.76v0c.54.42,1.14.86,1.77,1.28,5.26,3.51,8.74,5.55,8.74,5.55a13.82,13.82,0,0,1,6.42,8.18,12.72,12.72,0,0,1,.14,6.36,8,8,0,0,1-1.38,3.32,11,11,0,0,0-1.47,1.93,5.23,5.23,0,0,0-.67,1.87,4.79,4.79,0,0,0,0,.68,9.38,9.38,0,0,0,.27,2.44c.05.2.1.37.13.47a6.51,6.51,0,0,0,.74,1.42c.92,1.36,1.77,1.52,3.68,3a17.7,17.7,0,0,1,4.59,5,26,26,0,0,1,2.23,4.37,24.2,24.2,0,0,1,1.81,7.67,23.31,23.31,0,0,1-1,8.69,19.93,19.93,0,0,1-3.54,6.37,18,18,0,0,1-5,4.22s13,28.69,15.86,54.51Z" transform="translate(-41.2 -7)"/><path class="cls-1" d="M88.06,13.14a16.3,16.3,0,0,1,.18,4.27,16.81,16.81,0,0,1-2.81,7.93,22.27,22.27,0,0,0,2.23-6.21A22.92,22.92,0,0,0,88.06,13.14Z" transform="translate(-41.2 -7)"/><path class="cls-1" d="M88.06,13.14a14.34,14.34,0,0,1,1.79,1.95,16.7,16.7,0,0,1,3.44,9.15A12.48,12.48,0,0,0,88.06,13.14Z" transform="translate(-41.2 -7)"/><path class="cls-2" d="M112.24,130.24c-.11.1-.23.21-.35.3a3.42,3.42,0,0,1-1.08.58c-1.06.37,0,3.25,0,3.25a5.29,5.29,0,0,1,0,1.64c-.06,1.67-.44,3.61-1.94,4.52a4.34,4.34,0,0,1-2,.55c-.88,0-2.29.07-3-.63a13.36,13.36,0,0,1-.94-1.17,24.32,24.32,0,0,1-1.81-2.69.56.56,0,0,0-.1-.15.86.86,0,0,0-.36-.24c-.38-.15-8.79-6.46-13.89-9.95-6.33-4.33-7.78-4.47-10.5-7.69a28.6,28.6,0,0,1-3.2-4.76,66.14,66.14,0,0,1-6.77-18.55c-.28-1.35-.86-4.16-1.14-5.54-1.57-7.57-1.75-8.36-2.07-10.11-1.7-9.34-1.36-11.92.11-13.32a3.84,3.84,0,0,1,1.15-.75c5.57-2.84,8.93,4.94,10.38,9.1a66.31,66.31,0,0,1,2.44,9l3.9,21.63A3.45,3.45,0,0,0,82,107l22.14,22.88a1.26,1.26,0,0,0,1.57.21c.29-.17.55-.39.85-.54.76-.34,1.55-.59,2.34-.86l1.86-.86a2,2,0,0,0,.41-.36,4.07,4.07,0,0,0,.65-.72,2.07,2.07,0,0,1,.66-.75.72.72,0,0,1,.68,0,.92.92,0,0,1,.37.45,2.65,2.65,0,0,1,.22,1.62,3.32,3.32,0,0,1-.89,1.58Q112.56,130,112.24,130.24Z" transform="translate(-41.2 -7)"/><path class="cls-2" d="M182.15,192.07l0-4a43.59,43.59,0,0,0-2.82-16.35c-2.19-5.67-3.85-15.69,2.47-29.41a29,29,0,0,0,2.52-15.27v0s0,0,0-.06c-.05-.43-.1-.88-.16-1.34-1.78-15.89-4.7-45.88-2.82-57.77.33-2.08.64-3.8.93-5.28,2-10.27,3.13-8.19,2.18-25.07L183.37,30,183,27.59a19.25,19.25,0,0,1,2.63-13.16c3.76-5.87,10.71-11.59,21.67-2.19l.16.15A14.54,14.54,0,0,1,212.21,23a6.55,6.55,0,0,0,.83,3.71,36.75,36.75,0,0,0,2.86,2.87,2.07,2.07,0,0,1,.65,1.87,1.85,1.85,0,0,1-1,1.52c-1.5.71-1.16,2.73-1.16,2.73a3.17,3.17,0,0,1,.23.36,1.23,1.23,0,0,1,.27.68.85.85,0,0,1-.19.35l-.23.34-.27.44.23.59c.06.43,0,.87-.33,1.07s-1,.35-1.2.69a6.66,6.66,0,0,0-.06,4c.44,1.87-4.23,4.1-11.07,2.39l-.86-.1a1.09,1.09,0,0,0-1.18,1,19.28,19.28,0,0,0,.19,7.35A18.09,18.09,0,0,0,205.48,64c.31.29.65.57,1,.86h0c.54.42,1.11.85,1.74,1.26,5.26,3.52,8.71,5.62,8.71,5.62a13.33,13.33,0,0,1,6.51,8.06,13,13,0,0,1,.09,6.35,6.08,6.08,0,0,1-.44,1.24c-1.22,2.47-2.41,2.87-2.46,4,0,.8.58,1.41,2.69,3.15,2.42,2,3.63,3,4.44,3.54,4.2,2.74,9.35,12.42,8.23,22.32a22.15,22.15,0,0,1-3.26,9.57,19.76,19.76,0,0,1-8.85,7.54s13,28.69,15.86,54.51Z" transform="translate(-41.2 -7)"/><path class="cls-3" d="M212.27,24.18a17,17,0,0,0-1.05-4.95A16.06,16.06,0,0,0,207,13.08a16.87,16.87,0,0,1-.43,7.55c-1.71,5.71-6.87,10.9-10.36,10-1.63-.42-2.68-2.1-4-1.53a2.52,2.52,0,0,0-1.27,2,3.37,3.37,0,0,0,1.34,2.69,6.93,6.93,0,0,0,1.95,1.09c.41.17.5.16.57.2l.05,0c.1.08.93,4-1.71,9a5.69,5.69,0,0,1-2,2.4,4.52,4.52,0,0,1-2.47.66l0,0a15.87,15.87,0,0,0-1.46,2.11c-3.85,6.57-3.27,15.6-3,19.13.11,1.7.18,1.22.76,7.18.53,5.33.79,8,.76,9.63A27.21,27.21,0,0,1,183.48,97c-1.24,2.65-3.08,6.53-6.66,7.79-4.87,1.72-10.75-2.24-13.68-6.56-5-7.32-2.53-17.16-.84-24a41,41,0,0,1,6.22-14.42c1.4-2,8.59-9.31,12.95-12.86l.19-.17a2.23,2.23,0,0,0,.48-.67,2,2,0,0,0,.1-1.3c-.55-2.38-4.43-5.49-6.44-9.29-2.83-5.31-2.44-12.57-.23-17.49,5.09-11.27,20.17-11.07,22-11,1.61,0,13.44.39,16.11,7.19C213.92,14.85,215.22,18.45,212.27,24.18Z" transform="translate(-41.2 -7)"/><path class="cls-1" d="M188.76,47.25l0,0a15.87,15.87,0,0,0-1.46,2.11,15.16,15.16,0,0,1-5.62-2.58,2.23,2.23,0,0,0,.48-.67,2,2,0,0,0,.1-1.3A16.75,16.75,0,0,1,188.76,47.25Z" transform="translate(-41.2 -7)"/><path class="cls-4" d="M182.15,192.13l0-4a43.64,43.64,0,0,0-2.82-16.36c-2.19-5.67-3.85-15.69,2.47-29.41a28.94,28.94,0,0,0,2.52-15.26v-.06s0,0,0-.06c-.05-.43-.1-.88-.16-1.34-1.78-15.88-4.7-45.87-2.82-57.77.33-2.07.66-3.8.93-5.28a2.29,2.29,0,0,1,.2-.74c1.9-3.36,22.56,8.31,24.22,5.36.23-.4.21-1.27-1.23-3.18.31.3.69.52,1,.8v0c.54.42,1.14.86,1.77,1.28,5.26,3.51,8.74,5.55,8.74,5.55a13.82,13.82,0,0,1,6.42,8.18,12.72,12.72,0,0,1,.14,6.36,8,8,0,0,1-1.38,3.32c-.63.81-1.47,1.14-1.47,1.93a2.14,2.14,0,0,0,.51,1.28l.53.49.54.49,1.1.93.89.73,1.23,1c1.24,1,1.4,1.12,1.79,1.41s.81.56.92.63a16,16,0,0,1,4.33,5.27,24.93,24.93,0,0,1,2.3,5.77,27.08,27.08,0,0,1,1.33,8.29,24.47,24.47,0,0,1-2,9.45,19.8,19.8,0,0,1-4.4,6.59,17.41,17.41,0,0,1-6,3.79s13,28.69,15.86,54.51Z" transform="translate(-41.2 -7)"/><path class="cls-1" d="M207,13.08a16.3,16.3,0,0,1,.18,4.27,16.86,16.86,0,0,1-2.81,7.93,22.35,22.35,0,0,0,2.23-6.22A22.82,22.82,0,0,0,207,13.08Z" transform="translate(-41.2 -7)"/><path class="cls-1" d="M207,13.08A14.34,14.34,0,0,1,208.83,15a16.7,16.7,0,0,1,3.44,9.15A12.48,12.48,0,0,0,207,13.08Z" transform="translate(-41.2 -7)"/><path class="cls-2" d="M233.5,131.58l-.38.31a3.65,3.65,0,0,1-1.12.59c-1.1.37,0,3.3,0,3.31a5.24,5.24,0,0,1,0,1.68c-.06,1.7-.45,3.67-2,4.6a4.55,4.55,0,0,1-2.14.56c-.92,0-2.39.06-3.09-.65a12.38,12.38,0,0,1-1-1.19,23.58,23.58,0,0,1-1.9-2.75.42.42,0,0,0-.11-.15.82.82,0,0,0-.37-.25c-.4-.15-9.17-6.6-14.5-10.17-6.62-4.43-8.13-4.57-11-7.86a29.48,29.48,0,0,1-3.35-4.86,66.61,66.61,0,0,1-7.09-18.94c-.29-1.38-.9-4.25-1.2-5.65-1.65-7.73-1.83-8.53-2.17-10.32-1.79-9.53-1.44-12.16.1-13.59a4.3,4.3,0,0,1,1.19-.77c5.82-2.89,9.33,5.06,10.85,9.3A68,68,0,0,1,196.84,84l4.1,22.07a3.52,3.52,0,0,0,.94,1.81L225,131.22a1.33,1.33,0,0,0,1.63.22c.31-.18.57-.4.89-.55.8-.35,1.62-.6,2.44-.87l1.94-.88a2.16,2.16,0,0,0,.43-.37A3.88,3.88,0,0,0,233,128a2.13,2.13,0,0,1,.7-.76.73.73,0,0,1,.7,0,1.12,1.12,0,0,1,.4.46,2.71,2.71,0,0,1,.23,1.66,3.34,3.34,0,0,1-.94,1.61C233.92,131.18,233.71,131.39,233.5,131.58Z" transform="translate(-41.2 -7)"/><path class="cls-2" d="M302.06,192.12l.05-4a43.64,43.64,0,0,0-2.82-16.36c-2.19-5.67-3.85-15.68,2.47-29.41a28.94,28.94,0,0,0,2.51-15.26V127c-.06-.44-.1-.88-.16-1.34-1.78-15.89-4.7-45.88-2.82-57.77.33-2.08.64-3.81.93-5.28,2-10.28,3.13-8.19,2.18-25.07L303.28,30l-.35-2.4a19.26,19.26,0,0,1,2.63-13.16c3.75-5.86,10.71-11.59,21.66-2.18l.17.14a14.58,14.58,0,0,1,4.73,10.63c0,1.56.23,3,.83,3.71a34.74,34.74,0,0,0,2.86,2.86,2.09,2.09,0,0,1,.65,1.87,1.89,1.89,0,0,1-1,1.53c-1.5.71-1.17,2.72-1.17,2.72a3.75,3.75,0,0,1,.24.36,1.26,1.26,0,0,1,.27.69.92.92,0,0,1-.19.35l-.23.34-.27.43.23.6c.06.43,0,.87-.34,1.06s-1,.36-1.19.69a6.6,6.6,0,0,0-.06,4c.43,1.87-4.23,4.09-11.07,2.39l-.86-.1a1.07,1.07,0,0,0-1.18.94,19.28,19.28,0,0,0,.19,7.35,18,18,0,0,0,5.52,9.23c.31.3.64.58,1,.86h0c.54.43,1.11.85,1.74,1.27,5.26,3.51,8.71,5.62,8.71,5.62a13.3,13.3,0,0,1,6.51,8,13,13,0,0,1,.09,6.36,7,7,0,0,1-.44,1.24c-1.26,2.54-2.57,3.07-2.46,4s1.55,1.14,3.81,2.21a50.13,50.13,0,0,1,4.72,3c3.56,2.37,12.63,12.86,10.19,24.45A21.67,21.67,0,0,1,354,131a22.17,22.17,0,0,1-10.23,6.6s13,28.69,15.86,54.5Z" transform="translate(-41.2 -7)"/><path class="cls-3" d="M332.18,24.23a17.32,17.32,0,0,0-1.05-4.94A16.32,16.32,0,0,0,327,13.13a16.92,16.92,0,0,1-.43,7.56c-1.71,5.7-6.87,10.89-10.37,10-1.62-.42-2.67-2.1-4-1.53a2.52,2.52,0,0,0-1.26,2,3.4,3.4,0,0,0,1.34,2.69,6.8,6.8,0,0,0,2,1.09c.41.17.5.16.57.2l0,0c.1.09.93,4-1.71,9a5.66,5.66,0,0,1-2,2.41,4.53,4.53,0,0,1-2.46.65s0,0,0,0a15.15,15.15,0,0,0-1.46,2.1c-3.85,6.57-3.27,15.6-3,19.14.11,1.69.18,1.22.76,7.17.52,5.33.79,8,.76,9.63a27.22,27.22,0,0,1-2.28,11.68c-1.25,2.64-3.08,6.53-6.66,7.79-4.87,1.72-10.75-2.24-13.68-6.56-5-7.32-2.53-17.17-.84-24a40.69,40.69,0,0,1,6.22-14.42c1.4-2,8.59-9.31,12.95-12.87a2,2,0,0,0,.19-.16,2.29,2.29,0,0,0,.48-.68,2,2,0,0,0,.09-1.3c-.54-2.37-4.42-5.48-6.44-9.28-2.82-5.32-2.43-12.58-.22-17.49,5.09-11.27,20.17-11.07,22-11,1.61,0,13.43.38,16.11,7.19C333.83,14.91,335.13,18.5,332.18,24.23Z" transform="translate(-41.2 -7)"/><path class="cls-1" d="M308.67,47.3s0,0,0,0a15.15,15.15,0,0,0-1.46,2.1,15.31,15.31,0,0,1-5.62-2.57,2.29,2.29,0,0,0,.48-.68,2,2,0,0,0,.09-1.3A16.9,16.9,0,0,1,308.67,47.3Z" transform="translate(-41.2 -7)"/><path class="cls-4" d="M302.05,192.13l.05-4a43.43,43.43,0,0,0-2.81-16.36c-2.2-5.67-3.86-15.69,2.46-29.41a28.94,28.94,0,0,0,2.52-15.26v-.06s0,0,0-.06c-.05-.43-.1-.88-.16-1.34-1.78-15.88-4.69-45.87-2.82-57.77.33-2.07.66-3.8.93-5.28a2.58,2.58,0,0,1,.2-.74c1.9-3.36,22.56,8.31,24.22,5.36.23-.4.21-1.22-1.23-3.13.31.29.69.47,1,.75v0c.54.42,1.14.86,1.77,1.28,5.26,3.51,8.75,5.55,8.75,5.55a13.9,13.9,0,0,1,6.42,8.18,13,13,0,0,1,.14,6.36,8.15,8.15,0,0,1-1.39,3.32c-.66.85-1.56,1.27-1.46,1.93a1.52,1.52,0,0,0,.72.94,6.53,6.53,0,0,0,.78.28c.27.1.45.18.72.3s.65.29,1.19.56.91.48,1,.54c.61.35.75.46,1.71,1.07s.84.5,1.36.84.95.64,1.44,1a21.87,21.87,0,0,1,4.72,5.07,27,27,0,0,1,3.83,7.09,21.43,21.43,0,0,1,1.58,9.15,20.39,20.39,0,0,1-3.88,10.4,22.58,22.58,0,0,1-5.65,5.79,21.14,21.14,0,0,1-6.44,3.08s13,28.69,15.87,54.51Z" transform="translate(-41.2 -7)"/><path class="cls-1" d="M327,13.13a16.38,16.38,0,0,1,.18,4.28,16.75,16.75,0,0,1-2.82,7.92,22.11,22.11,0,0,0,2.24-6.21A22.92,22.92,0,0,0,327,13.13Z" transform="translate(-41.2 -7)"/><path class="cls-1" d="M327,13.13a14.9,14.9,0,0,1,1.79,2,16.67,16.67,0,0,1,3.44,9.14A12.48,12.48,0,0,0,327,13.13Z" transform="translate(-41.2 -7)"/><path class="cls-2" d="M355.38,132.82c-.13.11-.25.21-.39.31a3.56,3.56,0,0,1-1.16.6c-1.14.38,0,3.37,0,3.37a5.15,5.15,0,0,1,0,1.71c-.06,1.73-.47,3.74-2.09,4.67a4.76,4.76,0,0,1-2.22.57c-.95,0-2.48.06-3.2-.66a12,12,0,0,1-1-1.22,23.42,23.42,0,0,1-2-2.79.91.91,0,0,0-.11-.16,1,1,0,0,0-.39-.25c-.41-.15-9.52-6.72-15-10.36-6.86-4.51-8.43-4.66-11.38-8a30,30,0,0,1-3.47-4.94,66.64,66.64,0,0,1-7.37-19.27c-.31-1.4-.94-4.32-1.26-5.74-1.71-7.86-1.9-8.68-2.25-10.5-1.87-9.69-1.51-12.36.09-13.81a4.15,4.15,0,0,1,1.23-.78c6-2.93,9.68,5.15,11.25,9.47a65.89,65.89,0,0,1,2.67,9.34l4.27,22.44a3.45,3.45,0,0,0,1,1.84l24,23.79a1.41,1.41,0,0,0,1.69.23c.32-.18.6-.4.93-.56.82-.35,1.67-.61,2.53-.88l2-.89a2,2,0,0,0,.44-.37,3.83,3.83,0,0,0,.7-.75,2.24,2.24,0,0,1,.73-.77.79.79,0,0,1,.73,0,1,1,0,0,1,.4.47,2.65,2.65,0,0,1,.24,1.68,3.23,3.23,0,0,1-1,1.64A7.47,7.47,0,0,1,355.38,132.82Z" transform="translate(-41.2 -7)"/></svg>