<svg id="Capa_1" enable-background="new 0 0 512 512" height="512" viewBox="0 0 512 512" width="512" xmlns="http://www.w3.org/2000/svg"><g><path d="m472.594 66.904c0-4.216-1.643-8.18-4.623-11.161l-11.714-11.714c-2.982-2.98-6.945-4.623-11.161-4.623-4.217 0-8.181 1.643-11.161 4.623l-12.268 12.269-12.269-12.268c-2.98-2.981-6.944-4.624-11.161-4.624-4.216 0-8.18 1.643-11.159 4.623l-11.716 11.715c-6.153 6.154-6.152 16.168.001 22.321l12.269 12.268-12.27 12.269c-2.98 2.981-4.622 6.944-4.622 11.161 0 4.216 1.642 8.179 4.622 11.16l11.715 11.715c2.981 2.98 6.944 4.622 11.16 4.622 4.217 0 8.18-1.642 11.161-4.622l12.268-12.269 12.268 12.269c6.154 6.152 16.168 6.153 22.322-.001l11.713-11.714c2.982-2.98 4.624-6.944 4.624-11.16 0-4.217-1.643-8.18-4.623-11.16l-12.269-12.27 12.268-12.268c2.982-2.98 4.625-6.944 4.625-11.161zm-15.231.554-14.643 14.643c-2.199 2.199-3.41 5.123-3.41 8.232 0 3.11 1.212 6.035 3.41 8.231l14.643 14.644c.001.001.001.001.001.001.152.152.229.338.229.554 0 .215-.077.4-.23.554l-11.713 11.713c-.308.306-.805.305-1.108.001l-14.645-14.646c-4.539-4.537-11.924-4.534-16.463.001l-14.644 14.644c-.303.307-.8.309-1.106 0l-11.715-11.715c-.306-.305-.306-.802 0-1.106l14.644-14.644c4.537-4.538 4.538-11.923-.001-16.465l-14.642-14.642c-.306-.305-.306-.803-.001-1.107l11.716-11.715c.152-.152.338-.229.553-.229.216 0 .401.077.555.23l14.642 14.641c2.198 2.2 5.123 3.412 8.233 3.412 3.109 0 6.033-1.211 8.232-3.41l14.643-14.644c.304-.304.802-.307 1.107.001l11.714 11.714c.153.152.23.339.23.554s-.077.401-.231.553z"/><path d="m512 90.333c0-49.81-40.523-90.333-90.333-90.333-7.641 0-15.234.957-22.57 2.844-4.012 1.032-6.428 5.12-5.395 9.132 1.032 4.011 5.121 6.426 9.132 5.395 6.115-1.573 12.452-2.371 18.833-2.371 41.539 0 75.333 33.794 75.333 75.333s-33.794 75.334-75.333 75.334-75.334-33.795-75.334-75.334c0-22.322 9.817-43.364 26.934-57.73 3.173-2.663 3.586-7.394.924-10.566-2.664-3.172-7.393-3.586-10.566-.924-5.899 4.951-11.07 10.567-15.451 16.687-31.676-14.09-65.437-21.233-100.456-21.233-59.485 0-116.996 21.399-161.939 60.257-3.134 2.709-3.478 7.445-.769 10.579 1.483 1.716 3.574 2.595 5.677 2.595 1.738 0 3.484-.601 4.902-1.826 42.219-36.502 96.246-56.604 152.129-56.604 32.296 0 63.445 6.474 92.718 19.227-2.654 5.451-4.759 11.164-6.27 17.063-26.326-11.553-55.166-17.809-84.021-18.132-32.065-.374-64.316 6.588-93.235 20.09-6.443 3.008-10.072 10.059-8.825 17.148.674 3.828 1.016 7.749 1.016 11.652 0 11.65-3.052 23.144-8.826 33.235-1.808 3.158-1.086 7.159 1.71 9.487 3.609 3.006 6.898 6.384 9.775 10.039 15.29 19.426 19.922 46.8 13.768 81.361-4.735 26.589 5.849 50.165 28.311 63.065 10.188 5.851 21.656 8.788 33.504 8.787 10.48 0 21.258-2.3 31.694-6.916 3.788-1.676 5.5-6.105 3.825-9.894-1.59-3.594-5.657-5.31-9.302-4.051 2.181-4.001 4.872-7.721 8.019-11.094 10.994 4.773 23.11 7.429 35.839 7.429 4.143 0 7.5-3.357 7.5-7.5s-3.357-7.5-7.5-7.5c-12.224 0-23.767-2.945-33.987-8.135l-.008.023c-25.939-13.148-42.153-40.419-41.306-69.476 1.161-39.829 33.272-71.915 73.103-73.047 15.777-.458 30.903 3.907 43.908 12.591 9.463 21.206 26.865 38.117 48.406 46.941 42.369 65.543 33.234 152.664-22.118 208.016-31.386 31.386-73.186 48.671-117.698 48.671-44.514 0-86.312-17.284-117.697-48.67-4.842-4.841-7.509-11.278-7.509-18.125s2.666-13.284 7.509-18.126c4.841-4.842 11.277-7.508 18.124-7.508 6.848 0 13.284 2.666 18.126 7.508 22.368 22.367 53.362 34.647 85.095 33.628 7.145-.225 13.448-4.696 16.059-11.392 2.63-6.75 1.067-14.072-4.078-19.107-4.262-4.173-7.797-9.038-10.488-14.322 1.761-.427 3.517-.886 5.261-1.399 3.974-1.17 6.247-5.339 5.078-9.312s-5.331-6.249-9.312-5.078c-5.351 1.575-10.804 2.685-16.208 3.299-18.655 2.125-37.278-1.564-52.869-10.518-28.947-16.626-43.176-48.035-37.132-81.97 5.167-29.013 1.842-51.422-9.882-66.604-2.536-3.284-5.53-6.269-8.897-8.869-2.582-1.993-6.154-2.09-8.841-.238-11.214 7.731-24.355 11.818-38.004 11.818-3.903 0-7.825-.342-11.659-1.018-7.076-1.242-14.128 2.371-17.128 8.798-18.416 39.427-24.368 83.05-17.216 126.158 7.311 44.059 27.864 84.144 59.441 115.921 40.389 40.648 94.331 63.084 151.889 63.176.119.001.235.001.354.001 57.419-.001 111.289-22.253 151.718-62.682 62.884-62.885 80.28-157.474 44.715-238.186 5.934-1.527 11.632-3.646 17.032-6.285 12.759 29.279 19.236 60.434 19.236 92.738-.001 128.319-104.398 232.716-232.718 232.716s-232.717-104.397-232.717-232.717c0-55.886 20.104-109.914 56.607-152.133 2.709-3.133 2.365-7.869-.769-10.579-3.133-2.707-7.87-2.365-10.578.769-38.86 44.943-60.26 102.456-60.26 161.943 0 66.168 25.767 128.375 72.555 175.162 46.787 46.788 108.994 72.555 175.162 72.555s128.375-25.767 175.162-72.555c46.788-46.787 72.555-108.994 72.555-175.162 0-35.034-7.149-68.807-21.25-100.493 22.88-16.405 37.816-43.218 37.816-73.457zm-217.206 9.105c-47.769 1.357-86.279 39.838-87.672 87.604-.918 31.49 14.877 61.23 40.888 78.295-5.834 6.995-10.194 15.038-12.907 23.751-16.365 2.164-28.482-3.237-33.795-6.29-16.735-9.611-24.591-27.341-21.014-47.428 6.938-38.956 1.303-70.336-16.748-93.268-2.275-2.891-4.759-5.638-7.421-8.211 5.232-10.979 7.975-23.057 7.975-35.273 0-4.773-.418-9.567-1.242-14.252-.074-.42.089-.812.396-.956 52.923-24.709 115.462-24.72 168.367-.261-.188 2.38-.288 4.777-.288 7.186 0 5.552.507 10.988 1.471 16.267-11.884-5.084-24.751-7.544-38.01-7.164zm94.05 305.971c-37.597 37.598-87.695 58.289-141.11 58.289-.108 0-.223 0-.331-.001-53.542-.085-103.713-20.949-141.271-58.748-58.769-59.145-74.554-149.628-39.277-225.154.152-.326.585-.439.936-.372 4.689.825 9.487 1.244 14.26 1.244 14.712 0 28.944-3.881 41.511-11.274.84.873 1.628 1.785 2.358 2.731 9.03 11.693 11.381 30.133 6.987 54.806-7.185 40.34 9.84 77.74 44.429 97.607 14.936 8.577 32.168 13.111 49.833 13.111 3.419-.001 6.884-.179 10.329-.511 3.58 8.369 8.816 16.039 15.356 22.441 1.096 1.072.843 2.303.594 2.941-.261.667-.938 1.795-2.553 1.846-27.578.854-54.567-9.793-74.018-29.243-7.675-7.674-17.879-11.9-28.732-11.9-10.854 0-21.058 4.227-28.731 11.901-7.676 7.675-11.902 17.879-11.902 28.732 0 10.854 4.226 21.058 11.901 28.732 34.219 34.218 79.784 53.062 128.305 53.062 48.519 0 94.086-18.845 128.306-53.064 56.518-56.519 68.831-143.422 32.21-212.921 4.384.657 8.87 1 13.434 1 2.421 0 4.819-.099 7.192-.286 35.149 75.821 19.384 165.631-40.016 225.031z"/><path d="m280.42 194.256c-1.624 2.803-4.634 4.544-7.854 4.544s-6.229-1.741-7.854-4.544c-2.078-3.584-6.666-4.806-10.25-2.728-3.584 2.077-4.806 6.666-2.729 10.249 4.299 7.416 12.281 12.023 20.832 12.023s16.533-4.606 20.832-12.023c2.077-3.583.855-8.172-2.729-10.249-3.581-2.078-8.17-.857-10.248 2.728z"/><path d="m90.333 248.5c-13.271 0-24.066 10.796-24.066 24.066s10.796 24.067 24.066 24.067c13.271 0 24.067-10.797 24.067-24.067s-10.796-24.066-24.067-24.066zm0 33.134c-4.999 0-9.066-4.067-9.066-9.067 0-4.999 4.067-9.066 9.066-9.066 5 0 9.067 4.067 9.067 9.066s-4.067 9.067-9.067 9.067z"/><path d="m206.3 82.833c-13.27 0-24.066 10.797-24.066 24.067s10.796 24.066 24.066 24.066c13.271 0 24.066-10.796 24.066-24.066s-10.796-24.067-24.066-24.067zm0 33.134c-4.999 0-9.066-4.067-9.066-9.066 0-5 4.067-9.067 9.066-9.067s9.066 4.067 9.066 9.067c0 4.998-4.067 9.066-9.066 9.066z"/></g></svg>