<svg id="Layer_1" viewBox="0 0 512 512" xmlns="http://www.w3.org/2000/svg" data-name="Layer 1"><path d="m391.31 169.83c0-74.6-60.7-135.31-135.31-135.31s-135.31 60.71-135.31 135.31a135 135 0 0 0 31.16 86.17 135 135 0 0 0 -31.16 86.17c0 74.6 60.7 135.31 135.31 135.31s135.31-60.71 135.31-135.31a135 135 0 0 0 -31.16-86.17 135 135 0 0 0 31.16-86.17zm-10.55 172.34a124.76 124.76 0 1 1 -218-82.67 5.28 5.28 0 0 0 0-7 124.76 124.76 0 1 1 186.52 0 5.3 5.3 0 0 0 0 7 124.49 124.49 0 0 1 31.48 82.67z"/><path d="m285.6 75.78a13.84 13.84 0 0 0 1.5-5.78c.21-8.67-7.64-16-8.53-16.76a5.28 5.28 0 0 0 -7.06 7.84c1.68 1.53 5.13 5.66 5.05 8.68 0 .73-.24 1.73-1.78 3l-.09.09a95.75 95.75 0 0 0 -10.8-1.46 11.52 11.52 0 0 0 .11-1.39c.22-8.67-7.63-16-8.52-16.76a5.27 5.27 0 1 0 -7 7.85c1.6 1.45 5.1 5.62 5 8.65a3.1 3.1 0 0 1 -.37 1.36 95.53 95.53 0 0 0 -12.41 1.2 14.21 14.21 0 0 0 .3-2.3c.21-8.67-7.64-16-8.53-16.76a5.27 5.27 0 1 0 -7 7.85c1.61 1.45 5.11 5.62 5 8.65 0 .74-.24 1.74-1.78 3a15.55 15.55 0 0 0 -3.07 3.31 94.87 94.87 0 0 0 41.24 184.18c-23.8 22.46-36 50.86-36.67 52.47a5.27 5.27 0 0 0 9.72 4.08c.21-.5 21.25-49.73 61-67.15.06 0 .1-.08.16-.11a94.89 94.89 0 0 0 -15.47-173.74zm-29.6 174.59a84.39 84.39 0 0 1 -31.57-162.66c2.36 6.36 8.49 11 10 12a5.27 5.27 0 0 0 5.86-8.76c-2.19-1.48-5-4.25-6-6.47a82.58 82.58 0 0 1 12.15-2.36 14.61 14.61 0 0 0 -.08 1.57c.4 8.48 9.31 14.83 11.1 16a5.18 5.18 0 0 0 2.91.89 5.28 5.28 0 0 0 2.95-9.65c-2.63-1.78-6.32-5.45-6.43-7.76a3.07 3.07 0 0 1 .88-1.56 83.4 83.4 0 0 1 11.7 1.09c0 .32-.06.68-.05 1 .4 8.48 9.31 14.83 11.09 16a5.23 5.23 0 0 0 2.91.89 5.27 5.27 0 0 0 2.95-9.65 21.28 21.28 0 0 1 -5.65-5.7 84.41 84.41 0 0 1 -24.72 165.13z"/><path d="m233.77 140.82a5.27 5.27 0 0 0 -5.27-5.27c-11.08 0-25.79 4.68-26.41 4.88a5.27 5.27 0 0 0 1.6 10.29 5.31 5.31 0 0 0 1.61-.26c.14 0 13.75-4.36 23.2-4.36a5.28 5.28 0 0 0 5.27-5.28z"/><path d="m309.91 140.43c-.62-.2-15.33-4.88-26.41-4.88a5.28 5.28 0 0 0 0 10.55c9.42 0 23.06 4.32 23.2 4.36a5.27 5.27 0 1 0 3.21-10z"/><path d="m292.63 170c-35.15 27.84-63.91 1.44-65.12.31a5.27 5.27 0 0 0 -7.26 7.64c.24.23 16.39 15.25 39.72 15.25 11.65 0 25.08-3.75 39.21-14.93a5.27 5.27 0 0 0 -6.55-8.27z"/></svg>