<svg clip-rule="evenodd" fill-rule="evenodd" height="300" image-rendering="optimizeQuality" shape-rendering="geometricPrecision" text-rendering="geometricPrecision" viewBox="0 0 2667 2667" width="300" xmlns="http://www.w3.org/2000/svg" version="1.1" xmlns:xlink="http://www.w3.org/1999/xlink" xmlns:svgjs="http://svgjs.dev/svgjs"><g transform="matrix(1,0,0,1,0,0)"><g id="Layer_x0020_1"><circle cx="1333" cy="1333" fill="#e97195ff" r="1333" data-original-color="#f44c71ff" stroke="none"/><g fill="#fff"><path d="m1757 2186c-400 0-1038-596-1223-1042-74-181-71-325 9-420l414 416c-20 38-6 92 11 133 83 200 366 446 514 447 18 0 32-4 45-10l415 415c-49 41-111 61-185 61zm-1183-1495 120-119c31-31 71-48 115-48s85 17 115 48l184 183c30 31 47 71 47 115 0 43-17 84-47 114l-121 121zm987 989 122-121c30-31 71-47 114-47s84 16 114 47l184 183c64 64 64 167 0 231l-121 120z" fill="#ffffffff" data-original-color="#ffffffff" stroke="none"/><path d="m2164 1256c-13 0-23-10-23-22 0-391-318-708-708-708-13 0-23-10-23-23s10-23 23-23c415 0 753 338 753 754 0 12-10 22-22 22z" fill="#ffffffff" data-original-color="#ffffffff" stroke="none"/><path d="m1947 1256c-12 0-22-10-22-22 0-271-221-492-492-492-13 0-23-10-23-23 0-12 10-22 23-22 296 0 537 241 537 537 0 12-10 22-23 22z" fill="#ffffffff" data-original-color="#ffffffff" stroke="none"/><path d="m1731 1256c-13 0-23-10-23-22 0-152-123-276-275-276-13 0-23-10-23-22 0-13 10-23 23-23 177 0 321 144 321 321 0 12-11 22-23 22z" fill="#ffffffff" data-original-color="#ffffffff" stroke="none"/></g></g></g></svg>