<svg id="Layer_1" enable-background="new 0 0 492 492" viewBox="0 0 492 492" xmlns="http://www.w3.org/2000/svg"><g><g><path d="m328.31 283c-3.18 0-5.76-2.58-5.76-5.76v-138.94c0-6.13-.61-12.29-1.8-18.3-.62-3.12 1.41-6.15 4.53-6.77 3.13-.62 6.15 1.41 6.77 4.53 1.34 6.75 2.02 13.66 2.02 20.55v138.94c0 3.17-2.58 5.75-5.76 5.75zm-200-.01c-3.18 0-5.76-2.58-5.76-5.76v-138.93c0-6.88.68-13.79 2.02-20.55.62-3.12 3.65-5.14 6.77-4.53 3.12.62 5.15 3.65 4.53 6.77-1.2 6.01-1.8 12.17-1.8 18.3v138.93c0 3.19-2.58 5.77-5.76 5.77z"/></g><g><path d="m394.26 467.67h-354.21c-8.57 0-15.55-6.98-15.55-15.57v-91.05c0-29.46 18.55-56.14 46.15-66.38.08-.03.15-.05.23-.08l104.54-33.83v-30.34c0-3.18 2.58-5.76 5.76-5.76 3.18 0 5.76 2.58 5.76 5.76v34.4c.01.42-.03.83-.1 1.23-.16.82-.49 1.58-.96 2.24-.5.7-1.16 1.3-1.95 1.72-.34.19-.71.34-1.09.45l-108.29 35.05c-23.05 8.61-38.53 30.91-38.53 55.54v91.05c0 2.23 1.81 4.05 4.03 4.05h354.21c3.18 0 5.76 2.58 5.76 5.76s-2.58 5.76-5.76 5.76zm.9-156.42c-1.02 0-2.05-.27-2.99-.84-3.19-1.94-6.58-3.59-10.09-4.9l-108.28-35.03c-.4-.12-.78-.28-1.14-.48-.75-.41-1.38-.98-1.87-1.65s-.83-1.45-1-2.29c-.08-.4-.11-.81-.1-1.23v-34.16c0-3.18 2.58-5.76 5.76-5.76 3.18 0 5.76 2.58 5.76 5.76v30.1l104.54 33.82c.08.03.15.05.23.08 4.24 1.57 8.34 3.56 12.19 5.9 2.72 1.65 3.58 5.2 1.93 7.92-1.1 1.78-3 2.76-4.94 2.76z"/></g><g><path d="m228.3 251.94c-22.3 0-43.31-8.65-59.17-24.34-15.84-15.68-24.69-36.59-24.93-58.85v-49.86c0-3.18 2.58-5.76 5.76-5.76s5.76 2.58 5.76 5.76v49.8c.42 39.53 32.98 71.74 72.58 71.74s72.17-32.21 72.6-71.8v-49.74c0-3.18 2.58-5.76 5.76-5.76s5.76 2.58 5.76 5.76v49.8c-.24 22.33-9.1 43.23-24.94 58.92-15.85 15.68-36.87 24.33-59.18 24.33z"/></g><g><path d="m228.31 345.6c-1.98 0-3.82-1.02-4.88-2.69l-47.13-74.88c-1.69-2.69-.89-6.25 1.81-7.94 2.69-1.69 6.25-.89 7.94 1.81l42.26 67.14 42.26-67.13c1.69-2.69 5.25-3.5 7.94-1.81 2.69 1.7 3.5 5.25 1.81 7.94l-47.13 74.87c-1.06 1.67-2.9 2.69-4.88 2.69z"/></g><g><path d="m228.31 467.67c-3.18 0-5.76-2.58-5.76-5.76v-122.07c0-3.18 2.58-5.76 5.76-5.76s5.76 2.58 5.76 5.76v122.08c0 3.17-2.58 5.75-5.76 5.75z"/></g><g><path d="m258.39 298.31h-59.85c-3.18 0-5.76-2.58-5.76-5.76s2.58-5.76 5.76-5.76h59.85c3.18 0 5.76 2.58 5.76 5.76s-2.57 5.76-5.76 5.76z"/></g><g><path d="m94.51 467.67c-3.18 0-5.76-2.58-5.76-5.76v-76.96c0-3.18 2.58-5.76 5.76-5.76s5.76 2.58 5.76 5.76v76.96c0 3.18-2.58 5.76-5.76 5.76z"/></g><g><path d="m187.77 240.65c-3.18 0-5.76-2.58-5.76-5.76v-36.85c0-9.65 7.85-17.51 17.51-17.51h57.58c9.65 0 17.51 7.85 17.51 17.51v36.85c0 3.18-2.58 5.76-5.76 5.76s-5.76-2.58-5.76-5.76v-36.85c0-3.3-2.69-5.99-5.99-5.99h-57.58c-3.3 0-5.99 2.69-5.99 5.99v36.85c0 3.18-2.57 5.76-5.76 5.76z"/></g><g><path d="m191.45 195.26c-.63 0-1.28-.11-1.91-.33-1.73-.61-42.37-15.44-45.33-64.99-.19-3.18 2.23-5.9 5.41-6.09s5.9 2.23 6.09 5.41c2.51 41.99 37.3 54.68 37.65 54.81 3 1.05 4.58 4.34 3.53 7.34-.83 2.36-3.06 3.85-5.44 3.85z"/></g><g><path d="m265.13 195.26c-2.38 0-4.6-1.48-5.43-3.85-1.05-3 .52-6.28 3.51-7.34 1.49-.53 35.63-13.28 37.71-55.65.16-3.18 2.86-5.64 6.04-5.47 3.18.16 5.63 2.86 5.47 6.04-2.47 50.31-43.63 65.34-45.38 65.95-.64.21-1.29.32-1.92.32z"/></g><g><path d="m326.72 124.64h-73.44c-1.81 0-3.52-.85-4.61-2.3s-1.43-3.33-.92-5.07c.54-1.84.81-3.75.81-5.68 0-11.16-9.08-20.25-20.25-20.25s-20.25 9.08-20.25 20.25c0 1.93.27 3.84.81 5.68.51 1.74.17 3.62-.92 5.07s-2.79 2.3-4.61 2.3h-73.44c-3.18 0-5.76-2.58-5.76-5.76v-43.66c0-27.25 22.17-49.41 49.41-49.41h109.5c27.25 0 49.41 22.17 49.41 49.41v43.65c.02 3.19-2.56 5.77-5.74 5.77zm-66.68-11.52h60.92v-37.9c0-20.9-17-37.89-37.89-37.89h-109.5c-20.89 0-37.89 17-37.89 37.89v37.89h60.92c-.02-.51-.04-1.02-.04-1.53 0-17.52 14.25-31.77 31.77-31.77s31.77 14.25 31.77 31.77c-.02.52-.03 1.03-.06 1.54z"/></g><g><path d="m326.04 73.3h-195.45c-3.18 0-5.76-2.58-5.76-5.76s2.58-5.76 5.76-5.76h195.45c3.18 0 5.76 2.58 5.76 5.76s-2.58 5.76-5.76 5.76z"/></g><g><path d="m228.31 143.36c-17.52 0-31.77-14.25-31.77-31.77s14.25-31.77 31.77-31.77 31.77 14.25 31.77 31.77-14.25 31.77-31.77 31.77zm0-52.02c-11.16 0-20.25 9.08-20.25 20.25s9.08 20.25 20.25 20.25 20.25-9.08 20.25-20.25-9.08-20.25-20.25-20.25z"/></g><g><g><path d="m444.75 377.42h-49.58c-3.18 0-5.76-2.58-5.76-5.76s2.58-5.76 5.76-5.76h49.58c3.18 0 5.76 2.58 5.76 5.76s-2.58 5.76-5.76 5.76z"/></g><g><path d="m419.96 223.3c-3.18 0-5.76-2.58-5.76-5.76v-63.64c0-3.18 2.58-5.76 5.76-5.76s5.76 2.58 5.76 5.76v63.64c0 3.18-2.58 5.76-5.76 5.76z"/></g><g><path d="m444.75 397.06c-3.18 0-5.76-2.58-5.76-5.76v-148.83c0-1.97-.77-3.83-2.17-5.22l-11.92-11.92c-2.73-2.73-7.17-2.73-9.89 0l-11.92 11.92c-1.4 1.4-2.17 3.25-2.17 5.22v148.83c0 3.18-2.58 5.76-5.76 5.76s-5.76-2.58-5.76-5.76v-148.83c0-5.05 1.97-9.8 5.54-13.37l11.92-11.92c7.22-7.22 18.96-7.22 26.18 0l11.92 11.92c3.57 3.57 5.54 8.32 5.54 13.37v148.83c.01 3.18-2.57 5.76-5.75 5.76z"/></g><g><path d="m445.66 467.67h-51.39c-3.18 0-5.76-2.58-5.76-5.76v-5.11c0-12.51 10.18-22.69 22.69-22.69h17.54c12.51 0 22.69 10.18 22.69 22.69v5.11c-.01 3.18-2.59 5.76-5.77 5.76zm-45.62-11.52h39.83c-.34-5.85-5.21-10.51-11.15-10.51h-17.54c-5.93 0-10.8 4.66-11.14 10.51z"/></g><g><path d="m462.26 418.91h-84.6c-3.18 0-5.76-2.58-5.76-5.76v-5.02c0-12.46 10.14-22.59 22.59-22.59h50.92c12.45 0 22.59 10.13 22.6 22.59v5.02c0 1.53-.61 2.99-1.69 4.07-1.07 1.08-2.53 1.69-4.06 1.69zm-78.82-11.52h73.03c-.39-5.76-5.2-10.33-11.06-10.33h-50.92c-5.85 0-10.66 4.57-11.05 10.33z"/></g><g><path d="m428.74 445.64h-17.55c-3.18 0-5.76-2.58-5.76-5.76v-26.73c0-3.18 2.58-5.76 5.76-5.76h17.55c3.18 0 5.76 2.58 5.76 5.76v26.73c0 3.18-2.58 5.76-5.76 5.76zm-11.8-11.52h6.04v-15.21h-6.04z"/></g><g><path d="m444.75 277.07h-49.59c-3.18 0-5.76-2.58-5.76-5.76s2.58-5.76 5.76-5.76h49.59c3.18 0 5.76 2.58 5.76 5.76s-2.58 5.76-5.76 5.76z"/></g></g><g><path d="m326.31 358.77h-57.45c-3.18 0-5.76-2.58-5.76-5.76s2.58-5.76 5.76-5.76h57.45c3.18 0 5.76 2.58 5.76 5.76s-2.58 5.76-5.76 5.76z"/></g></g></svg>